<svg width="32" height="32" viewBox="0 0 32 32" fill="none" xmlns="http://www.w3.org/2000/svg">
<g id="Group">
<path id="Vector" d="M4 6.66C4 5.19067 5.19067 4 6.66 4H25.34C26.8093 4 28 5.19067 28 6.66V25.34C28 26.0455 27.7198 26.7221 27.2209 27.2209C26.7221 27.7198 26.0455 28 25.34 28H6.66C5.95452 28 5.27794 27.7198 4.7791 27.2209C4.28025 26.7221 4 26.0455 4 25.34V6.66ZM8.476 24H23.796C22.9368 22.7645 21.7914 21.7554 20.4575 21.0589C19.1235 20.3623 17.6408 19.999 16.136 20C14.6312 19.999 13.1485 20.3623 11.8145 21.0589C10.4806 21.7554 9.33517 22.7645 8.476 24ZM16 17.3333C16.6128 17.3333 17.2197 17.2126 17.7859 16.9781C18.352 16.7436 18.8665 16.3998 19.2998 15.9665C19.7332 15.5332 20.0769 15.0187 20.3114 14.4525C20.546 13.8863 20.6667 13.2795 20.6667 12.6667C20.6667 12.0538 20.546 11.447 20.3114 10.8808C20.0769 10.3146 19.7332 9.80018 19.2998 9.36684C18.8665 8.9335 18.352 8.58975 17.7859 8.35523C17.2197 8.12071 16.6128 8 16 8C14.7623 8 13.5753 8.49167 12.7002 9.36684C11.825 10.242 11.3333 11.429 11.3333 12.6667C11.3333 13.9043 11.825 15.0913 12.7002 15.9665C13.5753 16.8417 14.7623 17.3333 16 17.3333Z" fill="white"/>
</g>
</svg>
