<svg width="20" height="20" viewBox="0 0 20 20" fill="none" xmlns="http://www.w3.org/2000/svg">
<g id="Left icon" clip-path="url(#clip0_142_11)">
<path id="Vector" d="M3.33398 18.3334C3.33398 16.5653 4.03636 14.8696 5.28661 13.6193C6.53685 12.3691 8.23254 11.6667 10.0007 11.6667C11.7688 11.6667 13.4645 12.3691 14.7147 13.6193C15.9649 14.8696 16.6673 16.5653 16.6673 18.3334H15.0007C15.0007 17.0073 14.4739 15.7355 13.5362 14.7978C12.5985 13.8602 11.3267 13.3334 10.0007 13.3334C8.67457 13.3334 7.4028 13.8602 6.46512 14.7978C5.52744 15.7355 5.00065 17.0073 5.00065 18.3334H3.33398ZM10.0007 10.8334C7.23815 10.8334 5.00065 8.59587 5.00065 5.83337C5.00065 3.07087 7.23815 0.833374 10.0007 0.833374C12.7632 0.833374 15.0007 3.07087 15.0007 5.83337C15.0007 8.59587 12.7632 10.8334 10.0007 10.8334ZM10.0007 9.16671C11.8423 9.16671 13.334 7.67504 13.334 5.83337C13.334 3.99171 11.8423 2.50004 10.0007 2.50004C8.15898 2.50004 6.66732 3.99171 6.66732 5.83337C6.66732 7.67504 8.15898 9.16671 10.0007 9.16671Z" fill="#8E8E8E"/>
</g>
<defs>
<clipPath id="clip0_142_11">
<rect width="20" height="20" fill="white"/>
</clipPath>
</defs>
</svg>
